# xmcd
#
# Track frame offsets:
# 150
# 14037
# 28295
# 49160
# 62700
# 76505
# 92450
# 105165
# 123630
# 133077
# 146737
# 158875
# 172380
# 186075
# 200882
# 220357
# 235862
# 248672
# 258470
# 271667
# 284747
# 295430
#
# Disc length: 4125 seconds
#
#
# Revision: 0
# Processed by: cddbd v1.5.1PL2 Copyright (c) Steve Scherf et al.
# Submitted via: FreeRIP 2.90 
#
DISCID=56101b16
DTITLE=Various Artist - sweet sentimental old memory volume 3
DYEAR=1900
DGENRE=Country
TTITLE0=take me home country road
TTITLE1=green green grass of home
TTITLE2=five hundred miles
TTITLE3=scarborough fair
TTITLE4=let me be there
TTITLE5=el condor pasa
TTITLE6=cotton fields
TTITLE7=reflections of my life
TTITLE8=you're my sunshine
TTITLE9=heart of gold
TTITLE10=young love
TTITLE11=san francisco
TTITLE12=silence is golden
TTITLE13=paloma blanca
TTITLE14=streets of london
TTITLE15=tie a yellow ribbon round the old oak tree
TTITLE16=evergreen tree
TTITLE17=river of no return
TTITLE18=greenfields
TTITLE19=morning side of the mountain
TTITLE20=roses are red
TTITLE21=rhinestone cowboy
EXTD=
EXTT0=
EXTT1=
EXTT2=
EXTT3=
EXTT4=
EXTT5=
EXTT6=
EXTT7=
EXTT8=
EXTT9=
EXTT10=
EXTT11=
EXTT12=
EXTT13=
EXTT14=
EXTT15=
EXTT16=
EXTT17=
EXTT18=
EXTT19=
EXTT20=
EXTT21=
PLAYORDER=
